<svg viewBox="0 0 200 200" xmlns="http://www.w3.org/2000/svg"><defs><linearGradient id="ag" x1="0" y1="0" x2="0.35" y2="1"><stop offset="0" stop-color="#FFCB2A"/><stop offset="0.5" stop-color="#FBA62F"/><stop offset="1" stop-color="#FB842A"/></linearGradient></defs><g fill="url(#ag)"><g transform="rotate(0 100 100)"><path d="M 100 100 L 80 44 Q 86 22 110 29 Q 128 56 110 86 Q 106 94 100 100 Z"/></g><g transform="rotate(60 100 100)"><path d="M 100 100 L 80 44 Q 86 22 110 29 Q 128 56 110 86 Q 106 94 100 100 Z"/></g><g transform="rotate(120 100 100)"><path d="M 100 100 L 80 44 Q 86 22 110 29 Q 128 56 110 86 Q 106 94 100 100 Z"/></g><g transform="rotate(180 100 100)"><path d="M 100 100 L 80 44 Q 86 22 110 29 Q 128 56 110 86 Q 106 94 100 100 Z"/></g><g transform="rotate(240 100 100)"><path d="M 100 100 L 80 44 Q 86 22 110 29 Q 128 56 110 86 Q 106 94 100 100 Z"/></g><g transform="rotate(300 100 100)"><path d="M 100 100 L 80 44 Q 86 22 110 29 Q 128 56 110 86 Q 106 94 100 100 Z"/></g></g><circle cx="100" cy="100" r="11" fill="#FFCB2A"/></svg>